<svg xmlns="http://www.w3.org/2000/svg" viewBox="0 0 187.395 87.012"><g fill-rule="evenodd"><path fill="#b00f14" d="M0 0h187.395v87.012H0V0"/><path fill="#00632b" d="M0 0h93.586v87.012H0V0"/><path fill="#fff" d="M11.754 21.621H175.64v43.77H11.754V21.62"/><path fill="#211e1e" d="M13.09 22.945h161.215v41.121H13.09v-41.12"/><path fill="#fff" d="M142.055 39.914c.468.281 1.066 1.031 1.418 1.43l9.902 10.289V36.012L151.5 36l-.023 11.098-2.813-2.883c-.492-.527-.89-1.008-1.383-1.524-.258-.257-.492-.421-.738-.703l-3.54-3.703c-.48-.457-.925-1.008-1.382-1.512-.246-.257-.492-.445-.738-.703-.246-.27-.41-.515-.703-.691-.117 4.676-.035 10.898-.012 15.715h1.887v-11.18M87.48 39.926c.293.14 1.184 1.136 1.43 1.406l1.418 1.477c.926 1.007 1.887 1.968 2.813 2.988.246.27.48.433.738.703.82.855 4.57 4.945 4.933 5.145V36.023L96.927 36v11.086c-.586-.445-.996-.973-1.453-1.465l-8.45-8.836c-.48-.422-.867-1.113-1.43-1.418v15.727h1.887V39.926M113.344 45.21c-.153 2.567-2.801 4.84-5.672 4.43-2.59-.374-4.594-2.554-5.04-5.12-.82-4.606 3.575-8.18 7.735-6.81 1.828.599 2.121 1.477 2.965 2.122l1.266-1.16c-.106-.281-.211-.352-.399-.55a4 4 0 0 0-.457-.434c-6.316-5.45-15.187 1.019-12.691 8.332 1.031 3.023 4.078 5.964 8.39 5.308.973-.152 1.829-.445 2.567-.89 2.496-1.512 3.41-3.82 3.41-6.95l-5.988.012.047 1.7 3.867.01M158.566 37.71c4.301-.01 7.864 1.161 7.829 5.907-.047 4.582-3.551 5.778-7.829 5.754zm-1.851 13.372c3.047.059 5.906.129 8.238-1.277 4.418-2.684 4.512-9.914-.023-12.54-2.461-1.417-5.11-1.359-8.25-1.265l.035 15.082M61.43 37.7c1.02-.106 2.32.034 3.175.421.868.399 1.418 1.113 1.395 2.332-.023 2.543-2.813 2.906-4.594 2.672zm2.754 6.82c3.34-.575 4.218-3.891 3.14-6.141C65.954 35.519 62.367 36 59.52 36v15.094h1.886v-6.375l.797-.012c.317.563.938 1.395 1.348 1.969l2.683 3.844c.329.515.27.585 1.02.574.527 0 1.066 0 1.594-.012-.13-.34-.88-1.289-1.149-1.664-.422-.598-.785-1.055-1.183-1.629l-1.782-2.46c-.199-.27-.41-.505-.55-.81M131.695 39.574c.176.176 2.567 5.602 2.637 6.012l-5.297-.023zm-5.203 11.508c.399-.633 1.477-3.527 1.863-3.762h6.692c.293.07 1.488 3.047 1.851 3.774l1.98-.024c-.468-1.207-1.183-2.695-1.769-3.902-.527-1.102-5.05-11.32-5.414-11.707-.41.586-7.113 15.422-7.136 15.633l1.933-.012M50.836 37.71h6.2l.023-1.71h-8.11c-.012 1.934-.094 14.262.047 15.094l8.05-.035c.177-2.262.083-1.688-2.19-1.688h-4.02v-5.695l6.035-.035c.023-.317.188-1.7-.21-1.7h-5.825v-4.23M31.02 37.71h6.199l.023-1.71h-8.11l.048 15.094 8.05-.035c.036-.34.012-.68.024-1.02 0-.352.094-.668-.235-.668h-6v-5.695l6.024-.035c.035-.317.2-1.7-.2-1.7H31.02v-4.23M75.21 51.035h8.052v-1.594c-.961-.011-5.637.141-6.176-.082-.082-.632-.023-3.316-.023-4.289 0-.386-.094-1.043.082-1.382l5.976-.047c.023-.305.012-.621.023-.938.012-.96.258-.762-2.132-.762-1.313 0-2.614.012-3.914 0v-4.23l6.222-.035v-1.63c-.527-.128-7.02-.058-8.11-.046v15.035M21.023 37.688c2.332-.012 4.57.187 4.559 2.671-.012 2.52-2.273 2.72-4.605 2.72zm-.046 7.09c1.851-.012 3.574-.071 4.851-1.044 1.09-.843 1.723-2.32 1.465-4.242-.504-3.62-4.559-3.61-8.191-3.492l.035 15.094 1.84-.012v-6.305M38.32 37.71l3.563.036v13.348h1.887V37.77c.515-.153 2.847-.06 3.574-.06V36l-9.047.012.023 1.699M117.469 36c0 .902-.094 14.484.047 15.094l6.41-.035c.035-.422.14-1.313-.047-1.606-.176-.176-4.313-.082-4.524-.082L119.344 36h-1.875"/></g></svg>